<svg id="Capa_1" enable-background="new 0 0 512 512" height="512" viewBox="0 0 512 512" width="512" xmlns="http://www.w3.org/2000/svg"><g><path d="m256 495.076h-230.338c-10.03 0-18.162-8.131-18.162-18.162v-114.546h248.5z" fill="#95d6a4"/><path d="m234.05 362.368h21.951v132.707h-21.951z" fill="#78c2a4"/><path d="m486.339 495.076h-230.339v-132.708h248.5v114.546c0 10.03-8.131 18.162-18.161 18.162z" fill="#dd636e"/><path d="m482.55 362.368v114.546c0 10.03-8.131 18.162-18.162 18.162h21.951c10.03 0 18.162-8.131 18.162-18.162v-114.546z" fill="#da4a54"/><path d="m504.5 382.368h-497v-347.281c0-10.03 8.131-18.162 18.162-18.162h460.677c10.03 0 18.162 8.131 18.162 18.162v347.281z" fill="#f9f6f9"/><path d="m486.339 16.925h-21.951c10.03 0 18.162 8.131 18.162 18.162v347.282h21.95v-347.282c0-10.031-8.131-18.162-18.161-18.162z" fill="#dddaec"/><g><path d="m280.224 126.524h-48.448c-3.783 0-6.85-3.067-6.85-6.85v-8.344c0-17.162 13.913-31.074 31.074-31.074 17.162 0 31.074 13.913 31.074 31.074v8.344c.001 3.783-3.066 6.85-6.85 6.85z" fill="#95d6a4"/><circle cx="256" cy="69.247" fill="#f1d0a5" r="25.02"/></g><g><path d="m123.857 461.434c1.921 0 3.84-.733 5.304-2.196l30.423-30.423c2.929-2.93 2.929-7.678 0-10.607-2.93-2.928-7.678-2.928-10.607 0l-25.211 25.212-11.037-10.655c-2.979-2.877-7.728-2.793-10.604.187s-2.794 7.728.187 10.604l16.338 15.774c1.453 1.403 3.33 2.104 5.207 2.104z"/><path d="m400.604 418.368c-2.93-2.928-7.678-2.928-10.607 0l-9.747 9.747-9.747-9.747c-2.93-2.928-7.678-2.928-10.607 0-2.929 2.93-2.929 7.678 0 10.607l9.747 9.747-9.747 9.747c-2.929 2.93-2.929 7.678 0 10.607 1.465 1.464 3.385 2.196 5.304 2.196s3.839-.732 5.304-2.196l9.747-9.747 9.747 9.747c1.465 1.464 3.385 2.196 5.304 2.196s3.839-.732 5.304-2.196c2.929-2.93 2.929-7.678 0-10.607l-9.747-9.747 9.747-9.747c2.927-2.929 2.927-7.677-.002-10.607z"/><path d="m486.339 9.425h-403.56c-4.143 0-7.5 3.357-7.5 7.5s3.357 7.5 7.5 7.5h403.56c5.879 0 10.661 4.783 10.661 10.662v339.781h-482v-339.781c0-5.879 4.783-10.662 10.662-10.662h27.13c4.143 0 7.5-3.357 7.5-7.5s-3.357-7.5-7.5-7.5h-27.13c-14.15 0-25.662 11.512-25.662 25.662v388.642c0 4.143 3.357 7.5 7.5 7.5s7.5-3.357 7.5-7.5v-33.86h233.5v97.707h-222.838c-5.879 0-10.662-4.782-10.662-10.661v-23.198c0-4.143-3.357-7.5-7.5-7.5s-7.5 3.357-7.5 7.5v23.198c0 14.149 11.512 25.661 25.662 25.661h381.221c4.143 0 7.5-3.357 7.5-7.5s-3.357-7.5-7.5-7.5h-143.383v-97.707h233.5v87.046c0 5.879-4.782 10.661-10.661 10.661h-49.469c-4.143 0-7.5 3.357-7.5 7.5s3.357 7.5 7.5 7.5h49.469c14.149 0 25.661-11.512 25.661-25.661v-441.828c0-14.15-11.512-25.662-25.661-25.662z"/><path d="m217.426 119.674c0 7.913 6.438 14.351 14.351 14.351h48.448c7.913 0 14.351-6.438 14.351-14.351v-8.344c0-9.734-3.744-19.076-10.246-26.143 2.663-4.714 4.191-10.15 4.191-15.94 0-17.932-14.589-32.521-32.521-32.521s-32.52 14.589-32.52 32.521c0 5.79 1.528 11.226 4.191 15.94-6.502 7.067-10.245 16.409-10.245 26.143zm62.149-.65h-47.149v-7.694c0-5.542 1.987-10.88 5.476-15.079 5.177 3.481 11.404 5.516 18.098 5.516s12.922-2.035 18.099-5.516c3.489 4.199 5.476 9.537 5.476 15.08zm-23.575-67.297c9.661 0 17.521 7.859 17.521 17.521 0 9.66-7.859 17.52-17.521 17.52-9.66 0-17.52-7.859-17.52-17.52 0-9.662 7.86-17.521 17.52-17.521z"/><path d="m101.356 156.094h-38.915c-4.143 0-7.5 3.357-7.5 7.5s3.357 7.5 7.5 7.5h38.915c4.143 0 7.5-3.357 7.5-7.5s-3.357-7.5-7.5-7.5z"/><path d="m147.865 163.594c0 4.143 3.357 7.5 7.5 7.5h278.915c4.143 0 7.5-3.357 7.5-7.5s-3.357-7.5-7.5-7.5h-278.915c-4.142 0-7.5 3.357-7.5 7.5z"/><path d="m101.356 200.64h-38.915c-4.143 0-7.5 3.357-7.5 7.5s3.357 7.5 7.5 7.5h38.915c4.143 0 7.5-3.357 7.5-7.5s-3.357-7.5-7.5-7.5z"/><path d="m155.365 215.64h278.915c4.143 0 7.5-3.357 7.5-7.5s-3.357-7.5-7.5-7.5h-278.915c-4.143 0-7.5 3.357-7.5 7.5s3.358 7.5 7.5 7.5z"/><path d="m101.356 245.186h-38.915c-4.143 0-7.5 3.357-7.5 7.5s3.357 7.5 7.5 7.5h38.915c4.143 0 7.5-3.357 7.5-7.5s-3.357-7.5-7.5-7.5z"/><path d="m155.365 260.186h278.915c4.143 0 7.5-3.357 7.5-7.5s-3.357-7.5-7.5-7.5h-278.915c-4.143 0-7.5 3.357-7.5 7.5s3.358 7.5 7.5 7.5z"/><path d="m101.356 289.732h-38.915c-4.143 0-7.5 3.357-7.5 7.5s3.357 7.5 7.5 7.5h38.915c4.143 0 7.5-3.357 7.5-7.5s-3.357-7.5-7.5-7.5z"/><path d="m155.365 304.732h278.915c4.143 0 7.5-3.357 7.5-7.5s-3.357-7.5-7.5-7.5h-278.915c-4.143 0-7.5 3.357-7.5 7.5s3.358 7.5 7.5 7.5z"/><path d="m101.356 334.278h-38.915c-4.143 0-7.5 3.357-7.5 7.5s3.357 7.5 7.5 7.5h38.915c4.143 0 7.5-3.357 7.5-7.5s-3.357-7.5-7.5-7.5z"/><path d="m155.365 349.278h278.915c4.143 0 7.5-3.357 7.5-7.5s-3.357-7.5-7.5-7.5h-278.915c-4.143 0-7.5 3.357-7.5 7.5s3.358 7.5 7.5 7.5z"/></g></g></svg>